<?xml version="1.0" standalone="no"?><!DOCTYPE svg PUBLIC "-//W3C//DTD SVG 1.1//EN" "http://www.w3.org/Graphics/SVG/1.1/DTD/svg11.dtd"><svg t="1713154014424" class="icon" viewBox="0 0 1024 1024" version="1.1" xmlns="http://www.w3.org/2000/svg" p-id="10275" xmlns:xlink="http://www.w3.org/1999/xlink" width="200" height="200"><path d="M1018.311219 167.423273a17.748641 17.748641 0 0 0-9.403366-7.099456L512.167759 0.842036a17.799839 17.799839 0 0 0-10.836911 0l-142.978957 45.992873a17.799839 17.799839 0 0 0-8.242879 2.645231L201.941991 97.145481a17.816905 17.816905 0 0 0-6.092562 1.945524L15.035147 157.251937a17.936367 17.936367 0 0 0-9.403367 7.116522c-3.566794 3.396134-5.63178 8.157549-5.63178 13.157887v667.024653c0 7.850361 5.017404 14.796223 12.424049 17.202529l488.497215 158.389556a17.816905 17.816905 0 0 0 16.417493 3.003616l494.146062-158.304226c7.42371-2.38924 12.475247-9.352169 12.475247-17.236661V180.598226c0-5.017404-2.064986-9.778819-5.648847-13.174953zM506.757836 37.021959l443.460039 142.364581-95.757332 30.377482L418.543677 65.402719l88.214159-28.38076z m4.710217 281.571952L73.161947 176.48532l131.52767-42.306617 437.09442 143.081353-130.315984 41.333855zM360.297415 84.141188l435.524348 144.241841-95.12589 30.17269-437.469872-143.200815 97.071414-31.213716z m361.918685 205.457587l113.659568-36.06046v169.209401l-113.659568 44.320404V289.598775z m-230.391015 689.65417L35.770338 831.376046V202.306179l456.054747 147.8769v629.069866z m496.364642-144.873283l-460.594303 147.569711v-630.58874l158.850338-50.412967V493.418026c0 5.938968 2.918286 11.519551 7.782096 14.898619a17.680377 17.680377 0 0 0 16.554022 1.945524l149.429905-58.263328c6.894664-2.679362 11.434221-9.386301 11.434221-16.861209V242.189424l116.543721-36.964958v629.155196z" p-id="10276" fill="#e6e6e6"></path></svg>