<?xml version="1.0" standalone="no"?><!DOCTYPE svg PUBLIC "-//W3C//DTD SVG 1.1//EN" "http://www.w3.org/Graphics/SVG/1.1/DTD/svg11.dtd"><svg t="1713172140788" class="icon" viewBox="0 0 1024 1024" version="1.1" xmlns="http://www.w3.org/2000/svg" p-id="4523" xmlns:xlink="http://www.w3.org/1999/xlink" width="200" height="200"><path d="M471.466667 936.618667a395.136 395.136 0 0 1-39.168-5.973334 392.533333 392.533333 0 0 1-74.069334-22.997333 394.752 394.752 0 0 1-67.029333-36.394667 397.44 397.44 0 0 1-58.410667-48.213333 397.653333 397.653333 0 0 1-48.213333-58.410667 394.624 394.624 0 0 1-36.394667-67.029333 393.045333 393.045333 0 0 1-22.997333-74.069333 396.074667 396.074667 0 0 1-5.973333-39.168 400.426667 400.426667 0 0 1-2.048-40.362667 400.426667 400.426667 0 0 1 2.048-40.362667 396.288 396.288 0 0 1 5.973333-39.168 393.045333 393.045333 0 0 1 22.997333-74.069333 395.264 395.264 0 0 1 36.394667-67.029333 397.738667 397.738667 0 0 1 48.213333-58.410667 397.056 397.056 0 0 1 58.410667-48.213333 394.709333 394.709333 0 0 1 67.029333-36.394667 393.002667 393.002667 0 0 1 46.933334-16.426667v62.549334a334.890667 334.890667 0 0 0-228.266667 317.525333 335.317333 335.317333 0 0 0 334.933333 334.933333 335.317333 335.317333 0 0 0 334.933334-334.933333 334.890667 334.890667 0 0 0-228.266667-317.525333V163.925333a393.173333 393.173333 0 0 1 46.933333 16.426667 394.709333 394.709333 0 0 1 67.029334 36.394667 397.482667 397.482667 0 0 1 58.410666 48.213333 397.226667 397.226667 0 0 1 48.213334 58.410667 394.581333 394.581333 0 0 1 36.394666 67.029333 392.917333 392.917333 0 0 1 22.997334 74.069333c2.645333 12.8 4.650667 26.069333 5.973333 39.168a400.298667 400.298667 0 0 1 2.048 40.362667 400.298667 400.298667 0 0 1-2.048 40.362667 390.826667 390.826667 0 0 1-5.973333 39.168 392.917333 392.917333 0 0 1-22.997334 74.069333 394.581333 394.581333 0 0 1-36.394666 67.029333 397.653333 397.653333 0 0 1-48.213334 58.410667 397.184 397.184 0 0 1-58.410666 48.213333 394.624 394.624 0 0 1-67.029334 36.394667 392.533333 392.533333 0 0 1-74.069333 22.997333 395.136 395.136 0 0 1-39.168 5.973334 401.066667 401.066667 0 0 1-40.362667 2.048 401.066667 401.066667 0 0 1-40.362666-2.048zM480 426.666667V85.333333h59.733333v341.333334z" p-id="4524" fill="#ffffff"></path></svg>