<?xml version="1.0" encoding="utf-8"?>
<svg version="1.1" xmlns:xlink="http://www.w3.org/1999/xlink" width="25px" height="25px" xmlns="http://www.w3.org/2000/svg">
  <g transform="matrix(1 0 0 1 -23 -410 )">
    <path d="M 25 3.92287234042556  C 25 2.1276595744681  23.8314447592068 0.764627659574491  21.671388101983 0.764627659574491  L 20.0070821529745 0.764627659574491  C 19.5467422096317 0.764627659574491  19.0155807365439 1.03058510638296  19.0155807365439 1.46276595744681  C 19.0155807365439 1.89494680851065  19.5467422096317 2.32712765957444  20.0070821529745 2.32712765957444  L 21.671388101983 2.32712765957444  C 22.6628895184136 2.32712765957444  23.3356940509915 2.95877659574468  23 3.88962765957449  L 23 21.875  C 23.3356940509915 22.8058510638298  22.6628895184136 23.4375  21.671388101983 23  L 3.75354107648726 23  C 2.76203966005666 23.4375  1.66430594900849 22.8058510638298  2 21.875  L 2 3.88962765957449  C 1.66430594900849 2.95877659574468  2.33711048158638 2.32712765957444  3.32861189801698 2.32712765957444  L 5.41784702549575 2.32712765957444  C 5.87818696883851 2.32712765957444  6.05524079320112 1.89494680851065  6.05524079320112 1.46276595744681  C 6.05524079320112 1.03058510638296  5.87818696883851 0.764627659574491  5.41784702549575 0.764627659574491  L 3.32861189801698 0.764627659574491  C 0.9915014164306 0.764627659574491  0 2.1276595744681  0 3.92287234042556  L 0 21.7087765957447  C 0 23.6369680851064  1.23937677053826 25  3.5056657223796 25  L 21.4943342776204 25  C 23.7606232294618 25  25 23.8696808510638  25 21.7087765957447  L 25 3.92287234042556  Z M 6.26770538243626 7  C 5.80736543909346 7.01462765957449  5.41784702549575 7.3803191489362  5.41784702549575 7.8125  C 5.41784702549575 8.24468085106384  5.80736543909346 8.61037234042556  6.26770538243626 9  L 18.7677053824362 9  C 19.228045325779 8.61037234042556  19.6175637393768 8.24468085106384  19.6175637393768 7.8125  C 19.6175637393768 7.3803191489362  19.228045325779 7.01462765957449  18.7677053824362 7  L 6.26770538243626 7  Z M 19.6175637393768 12.1343085106383  C 19.5821529745042 11.6688829787234  19.1926345609065 11.3364361702128  18.7322946175637 11.3364361702128  L 6.26770538243626 11.3364361702128  C 5.80736543909346 11.3364361702128  5.41784702549575 11.7021276595745  5.41784702549575 12.1343085106383  C 5.41784702549575 12.5664893617021  5.80736543909346 12.9321808510638  6.26770538243626 13  L 18.7677053824362 13  C 19.228045325779 12.9321808510638  19.6175637393768 12.5664893617021  19.6175637393768 12.1343085106383  Z M 19.6175637393768 16.8218085106383  C 19.5821529745042 16.3563829787234  19.1926345609065 16.0239361702128  18.7322946175637 16  L 6.26770538243626 16  C 5.80736543909346 16.0239361702128  5.41784702549575 16.3896276595744  5.41784702549575 16.8218085106383  C 5.41784702549575 17.2539893617021  5.80736543909346 17.6196808510638  6.26770538243626 17.6196808510638  L 18.7677053824362 17.6196808510638  C 19.228045325779 17.6196808510638  19.6175637393768 17.2539893617021  19.6175637393768 16.8218085106383  Z M 8.35694050991503 1.36303191489361  C 8.35694050991503 2.09441489361704  8.92351274787535 2.72606382978727  9.63172804532582 2.72606382978727  L 15.4390934844192 2.72606382978727  C 16.1118980169972 2.72606382978727  16.6784702549575 2.09441489361704  16.6784702549575 1.36303191489361  C 16.6784702549575 0.631648936170232  16.1118980169972 0  15.4036827195467 0  L 9.63172804532582 0  C 8.92351274787535 0  8.35694050991503 0.631648936170232  8.35694050991503 1.36303191489361  Z " fill-rule="nonzero" fill="#cccccc" stroke="none" transform="matrix(1 0 0 1 23 410 )" />
  </g>
</svg>