<?xml version="1.0" encoding="utf-8"?>
<svg version="1.1" xmlns:xlink="http://www.w3.org/1999/xlink" width="25px" height="25px" xmlns="http://www.w3.org/2000/svg">
  <g transform="matrix(1 0 0 1 -23 -370 )">
    <path d="M 1.10081703828036 6.50368087327449  C 1.000918365684 6.54799471640906  0.901019693087634 6.59230858632021  0.751171669102167 6.59230858632021  C 0.501425002702137 6.59230858632021  0.201728984913053 6.45936703013992  0.101830312316694 6.23779773413742  C -0.0979670328760275 5.92760075186582  0.0518809911094398 5.52881065186543  0.451475651313086 5.35152060368049  L 11.9398229697128 0.0781717176265406  C 12.2894683087092 -0.0990837084648977  12.7390123504837 0.0338578744919715  12.9388096956765 0.388368699898178  C 13.1386070408692 0.742879525304385  12.9887590168838 1.09739040426371  12.5891643566801 1.27468045244874  L 1.10081703828036 6.50368087327449  Z M 12.9388096956765 24.682055644764  C 12.7889617018728 24.90362491399  12.539215005291 24.9922526270356  12.289468338891 24.9922526538122  C 12.1396203450873 24.9922526538122  12.039721672491 24.9479388106777  11.8898736485055 24.903590318673  L 0.351576978716727 18.6553711844334  C 0.00193163972033489 18.478115758342  -0.0979670328760275 18.0349771931135  0.101830312316694 17.7247802108419  C 0.301627657509416 17.4145832285703  0.801121020491275 17.3259208934309  1.15076635948761 17.5032109148394  L 12.6890630292764 23.751430049079  C 13.0387083682728 23.9286854751703  13.1386070408692 24.3718586624924  12.9388096956765 24.682055644764  Z M 24.8957832503707 17.5879611676149  C 25.0474263060638 17.8097727914961  25.0193688322785 18.0506255225685  24.9025732172173 18.2507302987108  C 24.8325661053485 18.3707239148537  24.7414866118056 18.4304091374711  24.6270714344277 18.5300806825127  L 12.9824373204905 24.903417208205  C 12.6416501554188 25.1021025320631  12.1516003421557 24.9785776498094  11.9346719343622 24.6759625043866  C 11.7177435265688 24.3733473321873  11.8625185653095 23.9324590959363  12.2033057303812 23.7338083673953  L 23.8480568892954 17.360471841703  C 24.1887269792083 17.1618211399386  24.6787767924715 17.2853806175092  24.8957832503707 17.5879611676149  Z " fill-rule="nonzero" fill="#cccccc" stroke="none" transform="matrix(1 0 0 1 23 370 )" />
  </g>
</svg>