<?xml version="1.0" encoding="utf-8"?>
<svg version="1.1" xmlns:xlink="http://www.w3.org/1999/xlink" width="25px" height="20px" xmlns="http://www.w3.org/2000/svg">
  <g transform="matrix(1 0 0 1 -23 -375 )">
    <path d="M 13 19.3136669748716  C 13.323716157629 19.6796945788262  12.9770023680668 20  12.5807580200364 20  C 12.184513672006 20  11.8377998824437 19.6796945788262  12 19.3136312245423  L 12 6.63868762393559  C 11.837799852515 6.27262426965169  12.1845136420773 5.95231884847775  12.5807580200364 5.95231882082859  C 12.9770023680668 5.95231882082859  13.323716157629 6.27262424200253  13 6.63868762393559  L 13 19.3136669748716  Z M 1.48591630511404 12.7244908750811  C 1.48591630511404 13.0905542293649  1.13920251555178 13.4108596505388  0.742958137592648 13.4108596505388  C 0.346713789562252 13.4108596505388  0 13.0905542293649  0 12.7244908750811  L 0 0.781673955392928  C 0 0.415610601109025  0.346713789562252 0.0953051799351757  0.742958137592648 0.0953051799351757  C 1.13920248562304 0.0953051799351757  1.48591627518529 0.415610601109025  1.48591630511404 0.781673955392928  L 1.48591630511404 12.7244908750811  Z M 25 12.6291856951459  C 25 12.9952490494298  24.6532862104377 13.3155544706036  24.2570805602605 13.3155544706036  C 23.8608362122301 13.3155544706036  23.5140837248148 12.9952490494298  23.5140837248148 12.6291856951459  L 23.5140837248148 0.68636880310696  C 23.5140837248148 0.320305448823057  23.8608362122301 0  24.2570805602605 0  C 24.6532862104377 0  25 0.32030542117385  25 0.68636880310696  L 25 12.6291856951459  Z M 10.4014141058692 9.52143652509676  C 10.2528224903222 9.75022610769971  10.0051697578388 9.84174194627061  9.75751702535549 9.84174194627061  C 9.60892540980843 9.84174194627061  9.50986432280077 9.79598404080968  9.3612726773251 9.75019035737039  L 3.8138518348282 6.77592561763819  C 3.46713804526601 6.59289394049617  3.31854639979021 6.18107268075133  3.56619910234486 5.81500932646743  C 3.76432127636006 5.49470390529363  4.21009615292991 5.35743013361254  4.60634053088905 5.58625546654473  L 10.1537613733859 8.56052023392605  C 10.5004751629481 8.74355191106807  10.6490668084238 9.1553731708129  10.4014141058692 9.52143652509676  Z " fill-rule="nonzero" fill="#cccccc" stroke="none" transform="matrix(1 0 0 1 23 375 )" />
  </g>
</svg>