<?xml version="1.0" encoding="utf-8"?>
<svg version="1.1" xmlns:xlink="http://www.w3.org/1999/xlink" width="25px" height="25px" xmlns="http://www.w3.org/2000/svg">
  <g transform="matrix(1 0 0 1 -23 -48 )">
    <path d="M 12.4998994547526 2.4997903556992  C 15.9515022978673 2.4997903556992  18.7499832377116 4.73812590190604  18.7499832377116 7.49951452412874  L 21.8749079071045 7.49951452412874  C 21.8749079071045 3.35783373923209  17.6776890526766 0  12.4998994547526 0  C 7.32210985682875 0  3.12505865376785 3.35783373923209  3.12505865376785 7.49951452412874  L 6.24991618855797 7.49951452412874  C 6.24991621704106 4.73812590190604  9.04843068146207 2.4997903556992  12.4998994547526 2.4997903556992  Z M 22.9166052049425 9.1666254855453  L 2.08336124199757 9.1666254855453  C 0.932748774924197 9.1666254855453  0 9.91295761422862  0 10.8328747037979  L 0 23.3328603201841  C 0 24.2536678638546  0.932748774924197 24.9999999925379  2.08336124199757 25  L 22.9166052049425 25  C 24.0670837446071 25.0000861741787  25 24.2536678638546  25 23.3328603201841  L 25 10.8328746549698  C 24.9999664469402 9.91295756540065  24.0670837446071 9.1666254855453  22.9166052049425 9.1666254855453  Z M 23 23.3716390066958  L 23.2576266566544 23.3716390066958  C 23.2576266566544 23.5612237722643  23.0766601934972 23.716338591554  22.8554787360497 23.716338591554  L 2.24328210376192 23.7163386159679  C 2.02210070328053 23.7163386159679  1.84113409770795 23.5612238210924  2 23.37163903111  L 2 11.0473352750229  C 1.84113409770795 10.8577504850404  2.02210070328053 10.7026356657509  2.24328210376192 11  L 22.8554787360497 11  C 23.0766601934972 10.7026356657509  23.2576266566544 10.8577504850404  23 11.0473352750229  L 23 23.3716390066958  Z M 12.4998994547526 13.3335267050046  C 10.7735786016362 13.3335267050046  9.37497487080891 14.4522780230299  9.37497487080891 15.8333457472273  C 9.37497487080891 16.7559342235143  10.0077547615534 17.5537702096043  10.9375209599813 17.9862246040066  L 10.9375209599813 20.3648529968513  C 10.9375209599813 21.0832357114805  11.6372584882366 21.6666110531033  12.5000670491536 21.6666110531033  C 13.3625739743285 21.6666110531033  14.062613138326 21.0832356870664  14.062613138326 20.3648529968513  L 14.062613138326 17.9862246040066  C 14.9923123160832 17.5537702096043  15.6249916330973 16.7559342723425  15.6249916330973 15.8333457472273  C 15.6249581085205 14.4524216753737  14.2263879022701 13.3336703573483  12.5000670491536 13.3336703573483  Z " fill-rule="nonzero" fill="#cccccc" stroke="none" transform="matrix(1 0 0 1 23 48 )" />
  </g>
</svg>