<?xml version="1.0" encoding="utf-8"?>
<svg version="1.1" xmlns:xlink="http://www.w3.org/1999/xlink" width="25px" height="25px" xmlns="http://www.w3.org/2000/svg">
  <g transform="matrix(1 0 0 1 -21 -89 )">
    <path d="M 25 12.4999856870391  C 25 9.16111828119712  23.6997906981974 6.02211955137886  21.3388429734768 3.6612058619669  C 18.9778952487562 1.30020626680727  15.8388893548517 0  12.5000142990025 0  C 9.16113921517082 0  6.02210472326153 1.30020629478969  3.66118562452818 3.66120588994918  C 1.30023789980749 6.02211957936114  0 9.16114690711889  0 12.5000143129608  C 0 14.9325428671107  0.699456300774357 17.2907935343133  2.02274500404997 19.3198907612889  C 2.28506616457928 19.7220621841363  2.82382532273219 19.8353688430652  3.22605491900873 19.5732200950595  C 3.62831314127266 19.3108995355586  3.74173461972379 18.772141611807  3.47941345919448 18.3698556572902  C 2.34087489138889 16.6241253383191  1.73906244900562 14.5943122674236  1.73906244900562 12.5000143129608  C 1.73906244900562 6.56643258288798  6.56641897391736 1.73908711838191  12.4999856730151 1.73908711838191  C 18.4336096240877 1.73908711838191  23.2609088970247 6.56646123679199  23.2609088970247 12.5000143129608  C 23.2609088970247 18.4335673891296  18.4336095961052 23.2609415075399  12.5000142990025 23.2609415075399  C 10.5351970164018 23.2609415075399  8.61293065497787 22.7266505707316  6.94110214356027 21.7159389780325  C 6.53013899080355 21.4674202541955  5.99556048600831 21.5991961731484  5.74712707072752 22.0101297304052  C 5.49866502945945 22.4211205674877  5.63038399836255 22.9556978474604  6.04131849714955 23.2041020676106  C 7.98463122731604 24.3789751786373  10.2179833845166 25  12.4999856730151 25  C 15.8388893828341 25  18.9778952487562 23.6997937052103  21.3388430014592 21.3387941100508  C 23.6997621001926 18.9778804206389  25 15.8388530928811  25 12.4999856870391  Z " fill-rule="nonzero" fill="#cccccc" stroke="none" transform="matrix(1 0 0 1 21 89 )" />
  </g>
</svg>