<?xml version="1.0" encoding="utf-8"?>
<svg version="1.1" xmlns:xlink="http://www.w3.org/1999/xlink" width="14px" height="17px" xmlns="http://www.w3.org/2000/svg">
  <g transform="matrix(1 0 0 1 -26 -91 )">
    <path d="M 4.21198303370088 9.46715824908021  C 1.73565058729777 10.5843047077841  0 13.141642388963  0 16.1110194697939  C 0 16.6019830950706  0.384612585546755 17  0.85904165373057 17  C 1.33347072191444 17  1.71808330746114 16.6019830950706  1.71808330746114 16.1110194697939  C 1.71808330746114 13.0970279506089  4.08754125601691 10.6450494077997  7.00000000000002 10.6450494077997  C 9.91245874398304 10.6450494077997  12.2819166925388 13.0970572164084  12.2819166925388 16.1110194697939  C 12.2819166925388 16.6019830950706  12.6665292780855 17  13.1409583462694 17  C 13.6153874144532 17  14 16.6019830950706  14 16.1110194697939  C 14 13.141642388963  12.2643494127022 10.5843047077841  9.7880169110103 9.46715824908021  C 11.1212613360931 8.53687131714178  11.9998504636919 6.95973368940259  11.9998504636919 5.17413196668414  C 11.9998504636919 2.32109198895075  9.75692766291175 0  6.99999997235565 0  C 4.24307228179944 0  2.00014948101936 2.32109198895075  2.00014948101936 5.17413196668414  C 2.00014948101936 6.95970442360307  2.87873860861804 8.53687131714178  4.21198303370088 9.46715824908021  Z M 6.99994343961428 8.57033213875549  C 5.19034631270179 8.57033213875549  3.71817628338357 7.04682553337231  3.71817628338357 5.17413196668414  C 3.71817628338357 3.30146769440335  5.19037459289467 1.77793179461282  6.99997171980715 1.77793179461282  C 8.80956884671964 1.77793179461282  10.2817388760379 3.30146769440335  10.2817388760379 5.17413196668414  C 10.2817388760379 7.04679623896492  8.80954056652677 8.57033213875549  6.99994343961428 8.57033213875549  Z " fill-rule="nonzero" fill="#cccccc" stroke="none" transform="matrix(1 0 0 1 26 91 )" />
  </g>
</svg>